<svg width="100" height="30" viewBox="0 0 100 30" fill="none" xmlns="http://www.w3.org/2000/svg">
<path opacity="0.5" d="M10 15C23.3333 10.3333 36.6667 10.3333 50 15C63.3333 19.6667 76.6667 19.6667 90 15" stroke="#5A6246" stroke-width="1.5"/>
<path opacity="0.7" d="M20 17C21.1046 17 22 16.1046 22 15C22 13.8954 21.1046 13 20 13C18.8954 13 18 13.8954 18 15C18 16.1046 18.8954 17 20 17Z" fill="#C9CBA3"/>
<path opacity="0.7" d="M50 17C51.1046 17 52 16.1046 52 15C52 13.8954 51.1046 13 50 13C48.8954 13 48 13.8954 48 15C48 16.1046 48.8954 17 50 17Z" fill="#C9CBA3"/>
<path opacity="0.7" d="M80 17C81.1046 17 82 16.1046 82 15C82 13.8954 81.1046 13 80 13C78.8954 13 78 13.8954 78 15C78 16.1046 78.8954 17 80 17Z" fill="#C9CBA3"/>
</svg>
