<svg width="70" height="18" viewBox="0 0 70 18" fill="none" xmlns="http://www.w3.org/2000/svg">
<path opacity="0.7" d="M4.375 9C13.125 6 23.3333 6 35 9C46.6667 12 56.875 12 65.625 9" stroke="#F8F4ED" stroke-width="1.5"/>
<path d="M8.75 10.35C9.47487 10.35 10.0625 9.74558 10.0625 8.99999C10.0625 8.25441 9.47487 7.64999 8.75 7.64999C8.02513 7.64999 7.4375 8.25441 7.4375 8.99999C7.4375 9.74558 8.02513 10.35 8.75 10.35Z" fill="#F8F4ED"/>
<path d="M35 10.35C35.7249 10.35 36.3125 9.74558 36.3125 8.99999C36.3125 8.25441 35.7249 7.64999 35 7.64999C34.2751 7.64999 33.6875 8.25441 33.6875 8.99999C33.6875 9.74558 34.2751 10.35 35 10.35Z" fill="#F8F4ED"/>
<path d="M61.25 10.35C61.9749 10.35 62.5625 9.74558 62.5625 8.99999C62.5625 8.25441 61.9749 7.64999 61.25 7.64999C60.5251 7.64999 59.9375 8.25441 59.9375 8.99999C59.9375 9.74558 60.5251 10.35 61.25 10.35Z" fill="#F8F4ED"/>
</svg>
